<?xml version="1.0" encoding="UTF-8"?>
<svg id="Layer_2" data-name="Layer 2" xmlns="http://www.w3.org/2000/svg" viewBox="0 0 81.72 95.41">
  <defs>
    <style>
      .cls-1 {
        fill: #5f60ff;
        stroke-width: 0px;
      }
    </style>
  </defs>
  <g id="Art">
    <path class="cls-1" d="m43.88,83.05c-1.62-.44-3.32-.21-4.77.63-.6.35-1.12.78-1.55,1.27l-24.64-14.23c.21-.96.19-1.96-.07-2.94-.43-1.62-1.47-2.98-2.93-3.82-.49-.28-1-.48-1.52-.62v-29.81c2.44-.87,4.19-3.19,4.19-5.92,0-.54-.07-1.05-.2-1.55l25.87-14.94c.69.57,1.49,1.01,2.38,1.24.54.15,1.09.22,1.64.22,1.09,0,2.17-.29,3.13-.84,3-1.73,4.03-5.59,2.3-8.59-.84-1.45-2.2-2.49-3.82-2.93-1.62-.43-3.32-.21-4.77.63-2.61,1.51-3.73,4.62-2.84,7.38l-25.67,14.82c-1.13-1.06-2.64-1.72-4.31-1.72-3.47,0-6.29,2.82-6.29,6.29,0,2.98,2.09,5.49,4.89,6.13v29.69c-1.45.46-2.75,1.43-3.56,2.85-.84,1.45-1.06,3.15-.63,4.77.43,1.62,1.47,2.98,2.93,3.82.99.57,2.07.84,3.13.84,1.67,0,3.3-.67,4.5-1.89l24.79,14.31c-.22,1.38,0,2.84.76,4.15.84,1.45,2.2,2.49,3.82,2.93.54.15,1.09.22,1.64.22,1.09,0,2.17-.29,3.13-.84,3-1.73,4.03-5.59,2.3-8.59-.84-1.45-2.2-2.49-3.82-2.93ZM40.85,3.88c.43-.25.91-.38,1.39-.38.24,0,.49.03.73.1.72.19,1.32.65,1.69,1.3.77,1.33.31,3.04-1.02,3.81-.64.37-1.4.47-2.12.28s-1.32-.65-1.69-1.3c-.77-1.33-.31-3.04,1.02-3.81ZM3.5,27.6c0-1.54,1.25-2.79,2.79-2.79s2.79,1.25,2.79,2.79-1.25,2.79-2.79,2.79-2.79-1.25-2.79-2.79Zm5.68,43.19c-.77,1.33-2.48,1.79-3.81,1.02-.64-.37-1.11-.97-1.3-1.69-.19-.72-.09-1.47.28-2.12.52-.89,1.46-1.39,2.42-1.39.47,0,.95.12,1.39.37.64.37,1.11.97,1.3,1.69.19.72.09,1.47-.28,2.12Zm34.46,20.74c-.64.37-1.4.47-2.12.28-.72-.19-1.32-.65-1.69-1.3-.77-1.33-.31-3.04,1.02-3.81.64-.37,1.4-.47,2.12-.28.72.19,1.32.65,1.69,1.3.77,1.33.31,3.04-1.02,3.81Zm7.82-74.07c-16.68,0-30.26,13.57-30.26,30.26s13.57,30.26,30.26,30.26,30.26-13.57,30.26-30.26-13.57-30.26-30.26-30.26Zm0,57.02c-14.75,0-26.76-12-26.76-26.76s12-26.76,26.76-26.76,26.76,12,26.76,26.76-12,26.76-26.76,26.76Zm16.37-30.39c-.52-.25-1.14-.17-1.59.19l-3.89,3.16v-1.99c0-.83-.67-1.5-1.5-1.5h-.03c1.18-1.34,1.9-3.09,1.9-5.01,0-4.19-3.41-7.6-7.61-7.6-3.57,0-6.57,2.48-7.38,5.81-1.09-1.77-3.03-2.95-5.26-2.95-3.41,0-6.18,2.77-6.18,6.18,0,1.34.43,2.57,1.16,3.58-.82.01-1.47.68-1.47,1.5v13.38c0,.83.67,1.5,1.5,1.5h23.36c.83,0,1.5-.67,1.5-1.5v-1.99l3.89,3.16c.27.22.61.33.95.33.22,0,.44-.05.64-.15.52-.25.86-.78.86-1.35v-13.38c0-.58-.33-1.11-.86-1.35Zm-12.71-9.76c2.54,0,4.61,2.07,4.61,4.6s-2.07,4.61-4.61,4.61-4.6-2.07-4.6-4.61,2.07-4.6,4.6-4.6Zm-6.79,8.01c.29.58.66,1.12,1.08,1.61h-1.91c.35-.49.63-1.03.82-1.61Zm-5.85-5.15c1.75,0,3.18,1.42,3.18,3.18s-1.42,3.18-3.18,3.18-3.18-1.42-3.18-3.18,1.42-3.18,3.18-3.18Zm16.87,20.13h-20.36v-10.38h20.36v10.38Zm6.33-1.65l-3.33-2.71v-1.67l3.33-2.71v7.08Zm-10.71-5.96c0-.88.71-1.59,1.59-1.59s1.59.71,1.59,1.59-.71,1.59-1.59,1.59-1.59-.71-1.59-1.59Z"/>
  </g>
</svg>